<?xml version="1.0" standalone="yes"?>
<svg xmlns="http://www.w3.org/2000/svg" width="128" height="128">
<path style="fill:#ffffff; stroke:none;" d="M0 0L0 128L54 128L54 127C46.5078 125.266 39.7039 122.151 34 116.907C-6.36567 79.7932 41.9873 34.1504 61 0L0 0z"/>
<path style="fill:#010101; stroke:none;" d="M61.1844 1.0324C55.2654 4.27982 50.9946 14.5885 47.1412 20C33.2884 39.4544 14.0835 65.7901 18.3241 91C23.4161 121.272 59.3871 137.494 86 123.099C90.7976 120.504 95.1908 117.071 98.8156 112.996C121.888 87.0607 104.251 57.6187 89.3989 33C83.81 23.7355 77.4833 14.8982 71.3295 6.00463C69.0145 2.65894 65.7106 -1.45087 61.1844 1.0324z"/>
<path style="fill:#ffffff; stroke:none;" d="M67 0C85.6538 33.506 135.852 81.9211 93 117.674C87.3971 122.349 81.073 125.363 74 127L74 128L128 128L128 0L67 0M63 14C50.753 35.9979 20.3759 65.334 29.3596 93C40.5964 127.605 96.7835 125.671 99.9066 87C102.091 59.9464 77.2512 36.0056 65 14L63 14z"/>
<path style="fill:#010101; stroke:none;" d="M89.1404 78.8511C85.172 80.1242 85.3185 85.7968 84.0201 89C81.6464 94.856 75.5519 97.6515 73.0718 103.039C71.1153 107.288 74.9103 110.459 79.0039 109.551C87.4878 107.669 93.4333 96.8167 94.9035 89C95.6318 85.128 95.6707 76.7561 89.1404 78.8511z"/>
</svg>
