<?xml version="1.0" standalone="yes"?>
<svg xmlns="http://www.w3.org/2000/svg" width="128" height="128">
<path style="fill:#ffffff; stroke:none;" d="M0 0L0 52L1 52C4.10029 28.9954 23.1381 6.4303 46 1C34.0611 -4.00978 13.0035 0 0 0z"/>
<path style="fill:#010101; stroke:none;" d="M46 0.522377C5.20987 8.47538 -9.98705 60.3887 6.96991 94C21.2945 122.393 55.5462 133.776 85 125.087C101.844 120.118 115.581 107.546 123.244 92C125.126 88.1817 132.028 74.936 124.852 72.7114C119.493 71.05 111.043 79.6176 106 81.456C91.1032 86.8871 74.5174 84.1611 62 74.4715C47.1197 62.9526 39.2321 43.4374 44.4282 25C46.3212 18.2834 52.0908 12.5529 53.4313 6.00463C54.4334 1.10951 49.9174 -0.241409 46 0.522377z"/>
<path style="fill:#ffffff; stroke:none;" d="M52 0C55.4995 8.88113 44.6722 19.478 43.3002 29C39.1993 57.459 60.0944 83.3502 89 84.4059C96.4542 84.6781 104.329 83.0594 111 79.7238C116.975 76.7362 121.017 71.4189 128 74L128 0L52 0M114 89C104.311 92.1515 94.3125 95.0508 84 93.7106C45.8018 88.7467 24.9719 49.9525 38 15C11.5639 23.7682 3.92281 62.1867 13.8758 85C27.4482 116.11 66.3936 127.727 95 109.934C102.85 105.052 110.63 97.7605 114 89M0 74L0 128L55 128L55 127C35.7835 125.43 17.3373 111.455 8.04244 95C4.25443 88.2941 3.2443 80.7378 0 74M127 81C121.434 104.432 98.1186 125.03 74 127L74 128L128 128C128 114.735 132.11 93.1766 127 81z"/>
</svg>
