<?xml version="1.0" standalone="yes"?>
<svg xmlns="http://www.w3.org/2000/svg" width="128" height="128">
<path style="fill:#ffffff; stroke:none;" d="M0 0L0 51L1 51C4.70043 38.4246 13.7701 38.1277 22.2978 31.0154C27.352 26.8002 28.8422 18.045 34.0401 13.1736C47.5506 0.511787 67.9048 -1.03964 83 9.78858C87.9901 13.3682 90.7051 19.6876 95.598 22.9761C98.9095 25.2018 104.233 24.7675 108 26.1042C117.361 29.4255 124.287 37.6008 127 47L128 47L128 0L0 0z"/>
<path style="fill:#010101; stroke:none;" d="M57 2.42901C46.4236 3.8932 36.2909 8.1167 29.7855 17.0039C26.8985 20.9478 25.6892 27.0575 22.2978 30.412C18.6025 34.0672 12.1522 34.4657 8.09336 38.213C-2.94576 48.4046 -3.17838 68.5491 8.09336 78.6713C16.4515 86.177 27.4828 86 38 86C58.146 86 80.0613 88.4346 100 85.5718C122.22 82.3814 135.927 59.5144 124.12 39C116.703 26.1121 106.726 29.5279 96.3758 22.9761C92.5347 20.5448 90.3437 15.2867 86.9606 12.1852C79.3451 5.20321 67.3243 0.999718 57 2.42901z"/>
<path style="fill:#ffffff; stroke:none;" d="M86 27C76.3817 10.3622 53.2057 6.64607 39.1852 20.3009C33.932 25.4171 34.0148 33.6327 29.2971 38.436C21.9885 45.877 9.80924 42.4151 9.04398 57C8.60322 65.4005 12.806 72.9293 21 75.7508C38.7067 81.8478 65.3194 77 84 77C92.1271 77 100.664 77.8594 107.999 73.6335C122.99 64.9972 121.866 42.4013 106 35.3634C100.143 32.7654 93.8057 32.8595 88 35.554C84.7722 37.0521 80.0184 42.5159 76.1636 40.8279C67.9613 37.2363 83.0355 28.3019 86 27M127 63C118.084 93.8907 76.4937 86 52 86C42.5217 86 32.3278 87.058 23 85.1921C12.5963 83.111 4.04391 76.3443 1 66L0 66L0 128L128 128L128 84L127 63z"/>
<path style="fill:#010101; stroke:none;" d="M28.1844 88.0324C10.6677 97.7152 14.4188 136.376 37.9599 124C49.8761 117.735 45.2213 104.838 39.6806 96C37.2698 92.1548 33.9148 84.8648 28.1844 88.0324M61.1844 88.0324C42.7866 98.2022 48.3982 137.074 71.9599 123.583C83.0715 117.22 78.1635 104.468 72.9352 96C70.5448 92.1285 66.8112 84.9221 61.1844 88.0324M94.3256 88.0324C87.3984 92.0404 80.5576 107.241 82.5586 115C85.0279 124.575 96.7347 128.556 104.96 123.633C116.042 116.999 111.434 104.597 106.05 96C103.678 92.2113 99.9825 84.7594 94.3256 88.0324z"/>
<path style="fill:#ffffff; stroke:none;" d="M30 100C28.1483 103.52 24.1648 108.584 25.7855 112.786C27.9277 118.342 36.3957 116.987 36.5579 110.985C36.6618 107.139 33.5644 103.352 32 100L30 100M63 100C61.2891 103.252 58.3217 107.121 58.4414 110.957C58.6221 116.752 67.1281 118.337 69.2145 112.811C70.8154 108.571 66.8684 103.552 65 100L63 100M96 100C94.2891 103.252 91.3217 107.121 91.4414 110.957C91.6047 116.195 99.0832 118.474 101.806 113.771C104.357 109.363 99.9923 103.787 98 100L96 100z"/>
</svg>
