<?xml version="1.0" standalone="yes"?>
<svg xmlns="http://www.w3.org/2000/svg" width="128" height="128">
<path style="fill:#ffffff; stroke:none;" d="M0 0L0 50L1 50C4.19387 36.5599 13.6607 35.851 22.49 28.1566C25.2944 25.7126 26.083 21.0816 28.108 18C33.4209 9.91534 42.3379 2.72234 52 1L35 0L0 0z"/>
<path style="fill:#010101; stroke:none;" d="M51 82C50.0712 85.4027 48.8305 88.701 47.5756 92L45.2045 98C43.0919 103.524 44.8965 111.281 51.9105 105.681C59.5046 99.618 64.7524 86.1041 74.0147 82.6034C91.7993 75.8815 110.407 88.5887 123.441 67.9992C132.171 54.2082 128.038 34.4565 113.996 25.9298C108.477 22.5782 101.403 23.298 96.2091 20.0116C92.3478 17.5682 90.3545 12.5128 86.9097 9.46451C77.4064 1.05495 64.4231 -1.87613 52 0.46759C42.4465 2.26993 33.386 8.96889 28.108 17C25.993 20.2182 25.2212 24.7634 22.49 27.49C16.7945 33.1757 8.82991 33.2296 3.9946 41C-5.28669 55.9152 2.3873 75.8029 19 80.9452C28.641 83.9295 40.9755 82 51 82z"/>
<path style="fill:#ffffff; stroke:none;" d="M69 0L69 1C82.2857 2.99139 85.6251 13.4543 95.3758 20.0116C98.908 22.387 104.06 21.9498 108 23.4684C117.593 27.1657 125.454 35.7252 127 46L128 46L128 0L69 0M75 62C84.8378 62.2378 84.6647 66.8114 80 74C89.851 74 101.286 75.5246 109.985 69.8665C123.583 61.0231 122.112 39.5515 107.996 32.0502C100.74 28.1942 91.7166 29.2529 85 33.5941C82.7197 35.068 78.1986 39.1703 75.7515 35.6381C72.4233 30.834 82.7684 25.4214 86 24C78.859 5.5676 53.2612 3.56654 40.0154 16.0934C34.3369 21.4637 34.0672 29.2653 29.2724 34.4861C23.1527 41.1495 13.6651 38.2178 9.56327 49C2.21192 68.324 26.65 77.9203 41.8951 73.6821C54.7145 70.1182 49.842 42.7197 66 42.0193C69.9709 41.8472 80.9323 40.2182 82.5818 45.1481C84.1662 49.8836 76.9468 57.8352 75 62M54 73C60.7047 73.2175 62.3525 75.6683 61 82L71 70C58.3673 69.0363 69.3181 56.2239 72 50C61.0672 50.1295 57.6911 64.1344 54 73M127 57C124.649 72.6841 110.001 81.8177 95 81.9961C88.5578 82.0728 77.8812 79.919 72.0895 83.0278C63.8122 87.4707 58.8756 98.6619 51.9105 104.847C46.2531 109.871 43.1904 104.691 45.2191 99C45.94 96.9777 46.8123 95.0068 47.5756 93C48.9527 89.3792 50.3431 85.8178 51 82C31.7184 82 7.04542 84.9805 1 61L0 61L0 128L33 128C29.7116 114.181 42.2884 114.181 39 128L63 128C59.7116 114.181 72.2884 114.181 69 128L89 128C85.7116 114.181 98.2884 114.181 95 128L128 128L128 79L127 57z"/>
<path style="fill:#010101; stroke:none;" d="M21.3133 84.0864C18.4214 85.7211 19.0057 90.2339 19 93C18.9815 101.971 18.6288 111.038 19.0193 119.999C19.1496 122.99 20.4992 127.952 24.6867 126.338C27.8864 125.104 26.9988 119.65 27 117C27.0042 107.777 27.7564 98.1898 26.9414 89.0046C26.6942 86.2189 24.867 82.0776 21.3133 84.0864M77.3133 84.0864C74.4214 85.7211 75.0057 90.2339 75 93C74.981 102.219 74.2439 111.814 75.0586 120.995C75.3058 123.781 77.133 127.922 80.6867 125.914C83.5786 124.279 82.9943 119.766 83 117C83.019 107.781 83.7561 98.1861 82.9414 89.0046C82.6942 86.2189 80.867 82.0776 77.3133 84.0864M103.313 84.0864C100.421 85.7211 101.006 90.2339 101 93C100.981 102.219 100.244 111.814 101.059 120.995C101.306 123.781 103.133 127.922 106.687 125.914C109.579 124.279 108.994 119.766 109 117C109.019 107.781 109.756 98.1861 108.941 89.0046C108.694 86.2189 106.867 82.0776 103.313 84.0864M34.3133 96.0864C29.9571 98.5488 30.8983 116.471 37.6867 112.863C42.1673 110.482 40.9842 92.3156 34.3133 96.0864M64.3133 96.0864C59.9571 98.5488 60.8983 116.471 67.6867 112.863C72.1674 110.482 70.9842 92.3156 64.3133 96.0864M90.3133 96.0864C85.9051 98.5782 87.0003 116.693 93.6867 112.914C98.0949 110.422 96.9997 92.3068 90.3133 96.0864M51.0648 110.086C45.1099 111.363 45.0821 127.306 51.9853 126.534C58.2466 125.833 57.7945 108.644 51.0648 110.086M34.3133 116.086C30.0903 118.474 31.3965 130.179 37.6867 127.377C42.2668 125.337 40.0077 112.868 34.3133 116.086M64.3133 116.086C60.0903 118.474 61.3965 130.179 67.6867 127.377C72.2668 125.337 70.0077 112.868 64.3133 116.086M90.3133 116.086C86.0903 118.474 87.3965 130.179 93.6867 127.377C98.2669 125.337 96.0077 112.868 90.3133 116.086z"/>
</svg>
