<?xml version="1.0" standalone="yes"?>
<svg xmlns="http://www.w3.org/2000/svg" width="128" height="128">
<path style="fill:#ffffff; stroke:none;" d="M0 0L0 61C4.30907 59.1741 21.3642 55.6472 21.3642 64C21.3642 72.3528 4.30907 68.8259 0 67L0 128L61 128C59.1741 123.691 55.6472 106.636 64 106.636C72.3528 106.636 68.8259 123.691 67 128L128 128L128 67C123.691 68.8259 106.636 72.3528 106.636 64C106.636 55.6472 123.691 59.1741 128 61L128 0L67 0C68.8259 4.30907 72.3528 21.3642 64 21.3642C55.6472 21.3642 59.1741 4.30908 61 0L0 0z"/>
<path style="fill:#010101; stroke:none;" d="M61.3179 1.0324C56.3082 4.25868 57.7129 26.7438 66.6821 20.9676C71.6918 17.7413 70.2871 -4.74382 61.3179 1.0324M19.3187 18.0471C11.9449 22.5735 27.0306 39.0614 33.5656 34.8056C40.4979 30.291 25.0739 14.5141 19.3187 18.0471M103.999 18.0471C100.091 19.8444 93.8409 25.7296 92.7122 29.9846C91.4889 34.5962 96.4471 36.4798 100.001 34.8056C103.915 32.9614 108.824 28.1476 110.238 24.0008C111.692 19.7405 108.274 16.0809 103.999 18.0471M62 31.4676C20.0643 35.6364 23.989 100.709 66 96.5324C107.916 92.3656 104.063 27.2861 62 31.4676z"/>
<path style="fill:#ffffff; stroke:none;" d="M60 41.5177C31.0872 47.6509 39.3309 92.5638 68 86.4823C96.9128 80.3491 88.6691 35.4362 60 41.5177z"/>
<path style="fill:#010101; stroke:none;" d="M2.3179 60.0278C-0.775003 62.0971 -0.164016 66.9497 3.14815 68.3966C6.55371 69.8843 16.5344 70.0782 19.6821 67.9722C22.775 65.9029 22.164 61.0503 18.8519 59.6034C15.4463 58.1157 5.46561 57.9218 2.3179 60.0278M108.318 60.0278C105.225 62.0971 105.836 66.9497 109.148 68.3966C112.554 69.8843 122.534 70.0782 125.682 67.9722C128.775 65.9029 128.164 61.0503 124.852 59.6034C121.446 58.1157 111.466 57.9218 108.318 60.0278M28.9961 92.7863C24.677 94.1855 19.2221 99.7172 17.7616 103.999C16.5294 107.612 18.8914 111.519 23.0046 110.338C27.2344 109.124 33.1748 102.956 34.9282 99.0039C36.7579 94.8796 33.101 91.4564 28.9961 92.7863M95.2284 92.7863C86.3911 96.2454 100.955 112.882 107.772 110.214C116.609 106.755 102.045 90.1182 95.2284 92.7863M61.3179 107.032C56.3082 110.259 57.7129 132.744 66.6821 126.968C71.6918 123.741 70.2871 101.256 61.3179 107.032z"/>
</svg>
