<?xml version="1.0" standalone="yes"?>
<svg xmlns="http://www.w3.org/2000/svg" width="512" height="512">
<path style="fill:#ffffff; stroke:none;" d="M0 0L0 512L206 512L206 511C188.807 510.645 170.574 503.066 156 494.396C103.133 462.945 78.2519 402.181 93.8843 343C98.06 327.192 105.788 313.202 115.294 300C119.72 293.853 129.266 286.754 129.941 279C134.137 230.815 130 180.39 130 132C130 113.505 128.571 94.3192 131.439 76C137.353 38.2277 168.809 5.9321 207 1L187 0L146 0L0 0z"/>
<path style="fill:#010101; stroke:none;" d="M207 0.463745C170.904 6.79758 141.917 32.0771 132.895 68C127.145 90.8942 130 116.568 130 140C130 185.306 130.846 230.703 129.995 276C129.8 286.41 116.781 296.563 111.029 305C100.228 320.84 93.2019 339.048 90.2747 358C76.1317 449.57 158.138 525.76 248 509.916C320.024 497.217 371.456 416.599 350.561 346C345.855 330.099 338.527 314.468 328.845 301C323.787 293.965 312.826 285.974 312.059 277C307.966 229.113 312 179.083 312 131C312 107.179 314.643 81.8534 306.655 59C292.668 18.983 248.966 -6.90021 207 0.463745z"/>
<path style="fill:#ffffff; stroke:none;" d="M235 0L235 1C272.777 4.08551 305.528 39.4346 310.715 76C313.413 95.026 312 114.811 312 134L312 232C312 247.151 309.891 264.028 312.147 279C313.467 287.753 324.582 295.894 329.562 303C339.117 316.635 346.985 332.812 351.104 349C369.09 419.691 314.537 507.714 238 511L238 512L512 512L512 0L235 0M213 31.4252C206.259 32.3427 200.19 33.7311 194 36.6404C150.956 56.8728 161 111.219 161 150L161 246C161 261.116 163.177 278.075 160.852 293C159.677 300.543 149.03 306.559 144.174 312C135.121 322.142 127.146 335.884 123.428 349C104.716 415.02 158.693 488.471 230 479.714C296.094 471.597 336.596 406.323 312.936 344C308.66 332.736 302.082 320.893 293.907 312C288.876 306.527 278.75 300.937 278.059 293C273.548 241.212 278 187.009 278 135C278 118.63 279.658 101.254 277.715 85C273.92 53.2715 246.308 26.8912 213 31.4252z"/>
<path style="fill:#010101; stroke:none;" d="M218 53.429C169.998 60.0898 184 126.363 184 161L184 258C184 273.047 186.278 290.122 183.852 304.96C182.783 311.5 172.541 315.88 168 320.09C158.841 328.581 152.125 338.431 147.453 350C126.052 402.989 172.007 463.713 229 456.714C284.842 449.856 314.819 392.083 291.111 342C286.605 332.482 279.078 324.114 271 317.464C266.863 314.058 259.091 310.729 258.148 304.96C255.363 287.923 258 268.28 258 251L258 140C258 121.741 261.771 98.6914 257.239 81C252.83 63.7877 236.118 50.915 218 53.429M332.001 71.6489C319.145 75.5456 317.391 94.0895 329.015 100.583C340.211 106.837 360.477 103 373 103C378.157 103 384.099 103.774 389 101.852C400.992 97.1487 402.917 78.5013 390.996 72.4568C386.056 69.9521 379.367 71 374 71C361.326 71 344.145 67.9679 332.001 71.6489z"/>
<path style="fill:#ffffff; stroke:none;" d="M219.147 87.0471C213.21 90.2782 216 106.255 216 112L216 188L216 281C216 293.972 219.091 311.409 215.682 323.907C213.899 330.446 202.2 334.753 197 338.348C185.451 346.331 175.701 358.434 175.039 373C173.407 408.955 208.704 438.079 243 419.676C260.578 410.244 272.023 387.753 266.844 368C263.654 355.829 256.337 346.094 246 339.029C240.801 335.475 229.101 331.446 227.318 324.907C223.288 310.129 227 289.349 227 274L227 162L227 102C227 97.8467 227.777 82.3503 219.147 87.0471z"/>
<path style="fill:#010101; stroke:none;" d="M334 124.529C320.157 127.73 315.72 148.633 330.015 154.772C335.852 157.278 343.781 156 350 156L392 156C398.69 156 407.707 157.551 413.999 154.991C427.3 149.578 425.227 128.915 412 124.943C403.771 122.471 393.518 124 385 124C369.056 124 349.535 120.938 334 124.529M334 177.529C319.538 180.873 316.488 200.593 330.001 207.547C335.748 210.505 342.75 210 349 210C361.289 210 376.129 212.237 388 208.695C401.106 204.785 403.002 185.758 390.996 179.14C385.664 176.2 378.852 177 373 177C360.733 177 345.966 174.763 334 177.529M333 231.533C318.433 235.074 317.084 256.394 331 261.852C337.737 264.494 346.88 263 354 263L393 263C399.277 263 407.018 264.2 412.999 262.03C426.807 257.021 426.024 235.9 411.999 231.649C404.282 229.31 394.02 231 386 231C369.562 231 348.972 227.651 333 231.533z"/>
</svg>
