<?xml version="1.0" standalone="yes"?>
<svg xmlns="http://www.w3.org/2000/svg" width="128" height="128">
<path style="fill:#ffffff; stroke:none;" d="M0 0L0 75C19.8118 68.7197 47.257 72.5065 68 73.0147C76.2285 73.2162 84.6731 75.1439 90.5324 81.3009C106.367 97.9406 91.2098 127.79 68 122.471C59.5449 120.533 52.5451 114.016 49.4684 106C48.2066 102.713 46.6846 94.8606 52.0934 94.1759C58.0137 93.4264 60.3175 108.66 66.0039 111.543C81.7464 119.525 95.6813 97.3953 81.956 86.419C75.5529 81.2983 65.6509 83 58 83C41.0068 83 15.7131 87.6581 0 81L0 128L128 128L128 43L127 43C118.893 76.8159 64.6268 66 39 66C30.359 66 21.6331 66.3562 13.0008 65.9807C10.0992 65.8545 5.61997 64.9434 6.03704 61.0247C6.88772 53.0317 26.6271 56 32 56L87 56C96.1826 56 105.833 57.1478 112.812 49.8951C121.876 40.4745 120.185 24.9629 108.999 17.9946C99.3901 12.0086 86.0002 15.1714 80.3673 25.0008C78.2651 28.669 77.5724 40.8421 71.1049 39.2485C62.3878 37.1004 71.177 20.6779 74.0432 17.0394C89.2433 -2.25604 121.105 3.41092 127 28L128 28L128 0L0 0z"/>
<path style="fill:#010101; stroke:none;" d="M92 5.46451C81.4595 7.36562 59.8763 24.6098 68.1937 37.6821C69.9989 40.5193 74.1483 40.1915 76.0617 37.6821C83.6019 27.7934 84.7685 10.5269 103 15.7894C121.678 21.1807 123.418 45.8331 106 54.0802C98.6667 57.5526 88.9026 56 81 56L30 56C24.5513 56 7.75418 53.1943 5.71219 60.1042C3.07789 69.0183 27.2336 66 32 66L86 66C96.8743 66 107.908 66.8101 116.996 59.6096C141.677 40.056 122.532 -0.0423889 92 5.46451M4.05864 73.5725C0.380063 74.7284 -1.36969 79.507 2.3179 81.9722C5.47622 84.0837 11.3848 83 15 83C33.5648 83 56.971 79.1511 75 83.5332C82.8564 85.4427 89.6325 93.8299 86.8873 102C83.2666 112.776 70.1478 116.491 62.2245 107.895C58.8699 104.255 59.3311 98.9168 56.2616 95.4375C54.0573 92.9389 50.2185 93.0755 48.7423 96.2292C41.8216 111.014 63.0114 123.774 75 122.91C97.134 121.314 105.967 91.4778 87.9097 78.2238C73.1445 67.3861 43.3933 73 26 73C19.2674 73 10.5274 71.5399 4.05864 73.5725z"/>
</svg>
